<?xml version="1.0" encoding="UTF-8" standalone="no"?>
<svg
   xmlns:dc="http://purl.org/dc/elements/1.1/"
   xmlns:cc="http://creativecommons.org/ns#"
   xmlns:rdf="http://www.w3.org/1999/02/22-rdf-syntax-ns#"
   xmlns:svg="http://www.w3.org/2000/svg"
   xmlns="http://www.w3.org/2000/svg"
   viewBox="0 0 660.66669 268"
   height="268"
   width="660.66669"
   xml:space="preserve"
   id="svg2"
   version="1.1"><metadata
     id="metadata8"><rdf:RDF><cc:Work
         rdf:about=""><dc:format>image/svg+xml</dc:format><dc:type
           rdf:resource="http://purl.org/dc/dcmitype/StillImage" /></cc:Work></rdf:RDF></metadata><defs
     id="defs6"><clipPath
       id="clipPath18"
       clipPathUnits="userSpaceOnUse"><path
         id="path16"
         d="M 0,201 H 495.5 V 0 H 0 Z" /></clipPath></defs><g
     transform="matrix(1.3333333,0,0,-1.3333333,0,268)"
     id="g10"><g
       id="g12"><g
         clip-path="url(#clipPath18)"
         id="g14"><g
           transform="translate(131.7501,145.8404)"
           id="g20"><path
             id="path22"
             style="fill:#000000;fill-opacity:1;fill-rule:nonzero;stroke:none"
             d="m 0,0 c -0.422,2.198 -0.772,4.414 -1.282,6.591 -1.006,4.295 -3.324,7.852 -6.417,10.934 -3.733,3.721 -8.272,5.912 -13.443,6.627 -2.874,0.398 -5.747,0.015 -8.609,-0.744 -4.267,-1.131 -7.771,-3.448 -10.727,-6.546 -3.571,-3.741 -5.663,-8.37 -6.35,-13.452 -0.574,-4.247 -0.219,-8.555 1.449,-12.579 1.74,-4.198 4.314,-7.819 8.019,-10.581 3.228,-2.408 6.847,-3.941 10.789,-4.393 3.089,-0.354 6.21,-0.2 9.294,0.764 3.247,1.015 6.179,2.522 8.683,4.74 C -3.045,-13.725 -0.327,-7.476 0,0 m -23.556,-40.155 c -8.68,-0.2 -16.326,2.295 -23.202,7.021 -4.868,3.346 -8.748,7.733 -11.576,12.927 -1.247,2.288 -2.04,4.826 -3.015,7.26 -2.255,5.633 -2.117,11.545 -1.827,17.428 0.106,2.152 0.739,4.307 1.352,6.397 0.647,2.206 1.452,4.381 2.37,6.491 2.336,5.361 5.952,9.785 10.358,13.573 3.106,2.67 6.558,4.793 10.391,6.276 2.896,1.121 5.788,2.27 8.941,2.408 3.725,0.164 7.493,0.673 11.169,0.301 4.102,-0.415 8.065,-1.732 11.875,-3.525 5.664,-2.666 10.326,-6.523 14.204,-11.32 2.633,-3.257 4.654,-6.931 6.089,-10.905 0.896,-2.482 1.503,-5.008 1.985,-7.608 0.737,-3.979 0.512,-7.96 0.281,-11.911 -0.147,-2.527 -1.106,-5.012 -1.743,-7.505 -0.857,-3.359 -2.409,-6.412 -4.256,-9.319 -2.735,-4.305 -6.229,-7.861 -10.374,-10.853 -3.364,-2.428 -7.027,-4.205 -10.925,-5.454 -3.993,-1.28 -8.133,-1.873 -12.097,-1.682" /></g><g
           transform="translate(308.6885,51.9739)"
           id="g24"><path
             id="path26"
             style="fill:#000000;fill-opacity:1;fill-rule:nonzero;stroke:none"
             d="m 0,0 c 0,0.751 0.008,1.502 -0.003,2.252 -0.006,0.398 -0.068,0.796 -0.068,1.193 -0.003,10.797 0,21.594 0,32.391 0,1.518 -0.015,3.036 -0.006,4.554 0.004,0.749 0.046,1.447 1.115,1.442 4.879,-0.023 9.758,-0.014 14.637,-0.02 0.113,0 0.227,-0.047 0.46,-0.099 0.019,-0.407 0.057,-0.831 0.056,-1.255 -0.02,-21.875 -0.041,-43.75 -0.07,-65.626 -0.005,-4.078 -0.038,-8.157 -0.076,-12.235 -0.003,-0.286 -0.156,-0.57 -0.24,-0.855 -0.261,0.108 -0.578,0.156 -0.774,0.335 -3.549,3.238 -7.101,6.474 -10.617,9.748 -3.797,3.535 -7.558,7.109 -11.335,10.666 -2.774,2.612 -5.537,5.236 -8.326,7.831 -4.743,4.411 -9.505,8.8 -14.253,13.205 -1.151,1.067 -2.268,2.169 -3.428,3.226 -0.306,0.278 -0.713,0.446 -1.204,0.744 -0.055,-0.375 -0.115,-0.594 -0.115,-0.812 0.012,-7.678 -0.018,-15.357 0.06,-23.034 0.063,-6.183 0.24,-12.366 0.412,-18.547 0.028,-1.008 -0.191,-1.407 -1.302,-1.392 -4.598,0.061 -9.198,0.055 -13.796,0.009 -1.024,-0.01 -1.253,0.35 -1.252,1.316 0.022,26.034 0.016,52.069 0.018,78.103 0,0.427 0.037,0.855 0.066,1.473 C -33.413,29.596 -16.931,14.712 -0.449,-0.172 -0.299,-0.115 -0.15,-0.057 0,0" /></g><g
           transform="translate(450.5746,144.6491)"
           id="g28"><path
             id="path30"
             style="fill:#000000;fill-opacity:1;fill-rule:nonzero;stroke:none"
             d="m 0,0 c 3.59,0 7.062,0.048 10.533,-0.013 3.754,-0.066 6.594,1.637 8.645,4.588 2.853,4.104 3.257,8.717 1.836,13.384 -1.159,3.805 -4.98,6.536 -9.053,6.601 -3.275,0.052 -6.551,0.011 -9.826,0.012 -0.707,0 -1.414,0 -2.135,0 z m 23.614,-11.963 c 5.223,-8.631 10.369,-17.135 15.645,-25.855 -0.666,-0.045 -1.005,-0.087 -1.344,-0.087 -4.878,-0.005 -9.757,0.048 -14.634,-0.043 -1.108,-0.021 -1.628,0.416 -2.079,1.265 -2.469,4.642 -4.946,9.28 -7.432,13.913 -1.373,2.559 -2.75,5.117 -4.178,7.646 -0.188,0.333 -0.689,0.682 -1.053,0.691 -2.557,0.061 -5.118,0.004 -7.676,0.05 -1.001,0.019 -0.94,-0.572 -0.938,-1.247 0.012,-6.757 0.012,-13.515 0.018,-20.272 0.002,-2.015 0.005,-2.01 -1.957,-2.009 -4.319,0.002 -8.637,0.001 -12.955,-0.006 -1.606,-0.002 -1.624,-0.005 -1.623,1.588 0.01,14.793 0.027,29.587 0.036,44.38 0.007,10.275 0.022,20.55 -0.021,30.825 -0.005,1.178 0.355,1.472 1.494,1.467 9.236,-0.044 18.473,0.031 27.709,-0.049 6.343,-0.055 12.074,-2.014 16.869,-6.253 3.35,-2.961 5.628,-6.634 7.076,-10.91 1.466,-4.327 1.692,-8.753 1.263,-13.172 -0.636,-6.548 -3.181,-12.382 -7.907,-17.063 -1.534,-1.519 -3.458,-2.643 -5.199,-3.955 -0.396,-0.298 -0.771,-0.625 -1.114,-0.904" /></g><g
           transform="translate(206.804,79.0858)"
           id="g32"><path
             id="path34"
             style="fill:#000000;fill-opacity:1;fill-rule:nonzero;stroke:none"
             d="m 0,0 v -16.005 h 31.492 c 0.047,-0.402 0.111,-0.705 0.112,-1.007 0.007,-4.36 -0.016,-8.72 0.021,-13.079 0.009,-0.972 -0.312,-1.182 -1.267,-1.152 -2.993,0.092 -5.99,0.06 -8.986,0.062 C 14.3,-31.176 7.228,-31.18 0.04,-31.18 v -17.407 h 37.856 c 0,-0.224 -10e-4,-0.44 -0.003,-0.651 -0.003,-0.344 -0.005,-0.596 -0.005,-0.618 -0.003,-0.371 -0.006,-3.899 -0.005,-13.55 -0.097,0 -0.194,10e-4 -0.291,10e-4 -17.606,0.025 -35.213,0.05 -52.819,0.075 -0.074,-0.006 -0.464,-0.028 -0.797,0.26 -0.372,0.324 -0.372,0.778 -0.371,0.842 0.01,37.737 0.01,72.959 0.01,75.477 v 1.383 H 37.829 L 37.829,0 Z" /></g><g
           transform="translate(470.8004,93.6975)"
           id="g36"><path
             id="path38"
             style="fill:#000000;fill-opacity:1;fill-rule:nonzero;stroke:none"
             d="m 0,0 c 0,-1.938 0,-3.809 0,-5.679 0,-2.52 -0.053,-5.041 0.023,-7.557 0.035,-1.142 -0.4,-1.421 -1.458,-1.417 -7.638,0.022 -15.276,-0.005 -22.914,-0.011 -4.157,-0.004 -8.315,0.006 -12.472,0.002 -0.352,-10e-4 -0.704,-0.063 -1.106,-0.101 v -15.844 h 31.563 c 0.024,-0.526 0.06,-0.947 0.06,-1.369 0.004,-4.159 -0.041,-8.318 0.026,-12.476 0.02,-1.217 -0.428,-1.447 -1.541,-1.442 -9.796,0.04 -19.593,0.024 -29.389,0.023 -0.194,0 -0.389,-0.028 -0.683,-0.05 -0.031,-0.371 -0.083,-0.712 -0.084,-1.052 -0.007,-4.999 0.026,-9.998 -0.036,-14.996 -0.013,-1.104 0.362,-1.314 1.376,-1.311 11.717,0.032 23.434,0.019 35.151,0.018 0.432,0 0.864,0 1.368,0 0.044,-0.396 0.108,-0.7 0.109,-1.005 0.005,-4.198 -0.017,-8.397 0.016,-12.595 0.007,-0.879 -0.248,-1.15 -1.16,-1.148 -17.235,0.03 -34.47,0.033 -51.705,0.006 -1.052,-10e-4 -1.452,0.21 -1.451,1.374 0.032,25.273 0.021,50.546 0.019,75.819 0,0.237 0,0.473 0,0.811 z" /></g><g
           transform="translate(270.0612,184.9022)"
           id="g40"><path
             id="path42"
             style="fill:#000000;fill-opacity:1;fill-rule:nonzero;stroke:none"
             d="m 0,0 c 5.452,-0.005 10.903,-0.009 16.355,-0.014 0.018,-1.233 0.037,-2.466 0.055,-3.699 0.08,-22.693 0.041,-39.474 0.013,-45.83 -0.004,-0.985 -0.024,-3.249 -0.664,-6.106 -0.994,-4.433 -3.072,-8.47 -6.019,-12.2 -3.624,-4.585 -8.294,-7.681 -13.722,-9.646 -4.042,-1.464 -8.249,-1.884 -12.556,-1.738 -6.413,0.218 -12.16,2.333 -17.286,6.025 -4.396,3.166 -7.655,7.361 -9.812,12.372 -1.798,4.177 -2.497,8.523 -2.471,13.073 0.086,15.436 0.053,30.873 0.065,46.31 0.001,0.436 0,0.872 0,1.417 5.445,0.007 10.89,0.015 16.334,0.022 0.013,-0.743 0.033,-1.989 0.042,-3.528 0.172,-27.903 0.018,-43.07 0.018,-43.07 0.013,-3.483 0.498,-6.984 2.414,-9.959 1.68,-2.606 3.932,-4.679 6.993,-5.835 2.28,-0.862 4.57,-1.043 6.9,-0.864 3.898,0.299 7.129,1.948 9.702,4.988 1.5,1.772 2.43,3.779 3.083,5.926 0.363,1.194 0.533,2.492 0.536,3.744 0.034,14.716 0.021,29.433 0.02,44.15 0,1.436 0,2.871 0,4.462" /></g><g
           transform="translate(21.9845,156.3963)"
           id="g44"><path
             id="path46"
             style="fill:#000000;fill-opacity:1;fill-rule:nonzero;stroke:none"
             d="m 0,0 h -0.005 c 0,-3.797 0.051,-7.594 -0.03,-11.389 -0.026,-1.228 0.445,-1.47 1.528,-1.457 3.236,0.039 6.472,-0.005 9.709,-0.015 2.108,-0.006 3.984,0.596 5.664,1.926 3.144,2.489 4.486,5.958 5.084,9.696 0.381,2.384 0.049,4.79 -0.794,7.174 -1.348,3.817 -5.347,7.001 -9.499,6.9 C 8.183,12.75 4.704,12.782 1.228,12.835 0.196,12.851 -0.033,12.47 -0.02,11.509 0.029,7.673 0,3.836 0,0 m -16.318,-49.561 v 78.067 c 0.449,0.024 0.868,0.068 1.288,0.067 10.036,-0.013 20.073,0.039 30.107,-0.108 1.932,-0.028 3.856,-0.819 5.775,-1.295 3.39,-0.84 6.25,-2.709 8.795,-4.976 3.206,-2.858 5.614,-6.341 6.849,-10.511 0.571,-1.927 1.032,-3.897 1.392,-5.875 0.276,-1.512 0.393,-3.065 0.445,-4.604 0.106,-3.131 -0.531,-6.153 -1.34,-9.173 -0.874,-3.267 -2.331,-6.217 -4.261,-8.947 -2.863,-4.052 -6.57,-7.027 -11.242,-8.817 -3.227,-1.237 -6.543,-1.775 -9.975,-1.752 -3.358,0.022 -6.717,0.01 -10.074,0.065 -1.039,0.017 -1.475,-0.241 -1.465,-1.41 0.056,-6.437 0.024,-12.875 0.023,-19.313 -0.001,-0.436 0,-0.872 0,-1.418 z" /></g><g
           transform="translate(175.5795,169.2235)"
           id="g48"><path
             id="path50"
             style="fill:#000000;fill-opacity:1;fill-rule:nonzero;stroke:none"
             d="m 0,0 v -25.549 c 0.234,-0.049 0.424,-0.125 0.614,-0.124 3.716,0.006 7.432,0.006 11.148,0.039 2.133,0.019 3.924,0.936 5.486,2.308 3.263,2.867 4.334,6.75 4.718,10.843 0.214,2.282 -0.303,4.551 -1.371,6.607 -1.926,3.707 -4.895,5.861 -9.203,5.869 C 8.275,0 5.157,-0.002 2.04,0 1.372,0 0.703,0 0,0 m -16.262,15.737 c 0.869,0 1.625,10e-4 2.382,0 9.637,-0.016 19.275,0.051 28.91,-0.113 2.116,-0.036 4.287,-0.7 6.311,-1.418 2.567,-0.911 4.932,-2.254 7.108,-3.985 1.998,-1.59 3.613,-3.451 5.06,-5.506 1.804,-2.562 2.838,-5.485 3.803,-8.418 0.376,-1.143 0.404,-2.403 0.57,-3.612 0.155,-1.137 0.459,-2.29 0.385,-3.415 -0.162,-2.44 -0.5,-4.869 -0.809,-7.298 -0.435,-3.405 -1.701,-6.524 -3.407,-9.473 -2.903,-5.019 -6.998,-8.726 -12.36,-10.953 -3.449,-1.432 -7.08,-1.931 -10.81,-1.863 -3.318,0.061 -6.637,0.028 -9.955,0.029 -0.274,0 -0.549,-0.055 -0.945,-0.097 v -22.013 h -16.243 z" /></g><g
           transform="translate(379.2036,131.1169)"
           id="g52"><path
             id="path54"
             style="fill:#000000;fill-opacity:1;fill-rule:nonzero;stroke:none"
             d="M 0,0 C 6.716,-0.121 13.051,-0.277 19.514,0.084 16.201,7.76 13,15.18 9.647,22.949 6.375,15.165 3.253,7.738 0,0 m 47.966,-24.385 c -2.213,0 -4.208,0 -6.203,0 -3.56,0.002 -7.12,0.052 -10.678,-0.023 -1.107,-0.024 -1.565,0.42 -1.952,1.369 -1.153,2.823 -2.455,5.587 -3.575,8.422 -0.327,0.827 -0.792,0.946 -1.505,0.944 -3.319,-0.013 -6.638,-0.016 -9.957,-0.021 -6.319,-0.009 -12.638,-0.045 -18.957,0 -1.039,0.008 -1.233,-0.636 -1.508,-1.312 -1.161,-2.844 -2.281,-5.704 -3.487,-8.528 -0.156,-0.367 -0.727,-0.787 -1.11,-0.791 -5.558,-0.053 -11.117,-0.04 -16.675,-0.039 -0.075,0 -0.151,0.048 -0.412,0.136 12.563,26.785 25.117,53.549 37.671,80.313 0.115,0.027 0.23,0.055 0.346,0.082 C 22.592,29.399 35.221,2.63 47.966,-24.385" /></g><g
           transform="translate(354.0302,54.8233)"
           id="g56"><path
             id="path58"
             style="fill:#000000;fill-opacity:1;fill-rule:nonzero;stroke:none"
             d="m 0,0 c -0.21,-5.219 0.918,-9.897 3.457,-14.188 2.389,-4.039 5.806,-6.968 10.152,-8.738 3.256,-1.327 6.664,-2.058 10.198,-1.931 4.441,0.16 8.512,1.602 12.219,3.977 1.695,1.086 3.238,2.435 4.739,3.788 0.635,0.571 0.955,0.509 1.387,-0.077 2.559,-3.467 5.134,-6.924 7.642,-10.429 0.183,-0.257 0.037,-1.02 -0.224,-1.283 -4.356,-4.411 -9.535,-7.472 -15.397,-9.486 -4.931,-1.694 -10.004,-2.207 -15.109,-1.71 -10.343,1.007 -19.091,5.397 -26.197,13.035 -3.543,3.807 -6.19,8.185 -8.008,12.995 -1.034,2.733 -1.585,5.688 -2.037,8.592 -0.395,2.54 -0.584,5.164 -0.428,7.724 0.163,2.694 0.764,5.373 1.318,8.029 0.837,4.021 2.589,7.672 4.764,11.138 3.637,5.796 8.437,10.401 14.447,13.622 2.851,1.528 5.913,2.727 8.989,3.748 2.031,0.674 4.247,0.836 6.396,1.095 1.777,0.215 3.581,0.375 5.365,0.31 2.173,-0.08 4.348,-0.35 6.502,-0.672 1.505,-0.225 2.978,-0.667 4.462,-1.025 2.947,-0.709 5.638,-2.033 8.19,-3.609 1.915,-1.182 3.705,-2.567 5.552,-3.859 0.628,-0.44 0.674,-0.849 0.19,-1.521 C 45.935,25.867 43.369,22.16 40.75,18.491 40.443,18.06 40.154,17.542 39.389,18.246 36.242,21.139 32.657,23.235 28.414,24.204 22.993,25.443 17.885,24.757 12.901,22.359 7.446,19.735 3.895,15.375 1.635,9.959 0.297,6.753 -0.238,3.289 0,0" /></g><g
           transform="translate(146.2446,85.032)"
           id="g60"><path
             id="path62"
             style="fill:#000000;fill-opacity:1;fill-rule:nonzero;stroke:none"
             d="m 0,0 c -2.962,-4.141 -5.888,-8.23 -8.908,-12.452 -0.687,0.525 -1.32,0.974 -1.913,1.47 -3.702,3.095 -7.877,5.028 -12.744,5.427 -8.885,0.729 -15.914,-2.538 -21.134,-9.719 -1.558,-2.143 -2.525,-4.568 -3.358,-7.093 -1.388,-4.2 -1.331,-8.538 -0.762,-12.723 0.928,-6.838 4.056,-12.591 10.207,-16.365 2.839,-1.743 5.822,-2.892 9.136,-3.19 1.502,-0.135 3.01,-0.459 4.502,-0.394 4.333,0.191 8.322,1.627 11.942,3.953 1.743,1.119 3.317,2.525 4.862,3.918 0.845,0.762 1.12,0.023 1.428,-0.388 1.801,-2.407 3.551,-4.852 5.321,-7.282 0.638,-0.876 1.228,-1.796 1.943,-2.604 0.71,-0.803 0.497,-1.363 -0.208,-1.982 -2.845,-2.499 -5.873,-4.711 -9.205,-6.555 -6.682,-3.696 -13.84,-4.944 -21.338,-4.271 -6.75,0.605 -12.983,2.838 -18.612,6.676 -5.592,3.811 -10.032,8.654 -13.203,14.643 -1.414,2.671 -2.423,5.482 -3.301,8.384 -1.393,4.6 -1.547,9.277 -1.287,13.974 0.127,2.279 0.861,4.524 1.313,6.786 0.627,3.141 1.894,6.046 3.428,8.822 3.017,5.459 7.067,10 12.169,13.641 3.37,2.405 7.091,4.049 10.919,5.474 1.531,0.57 3.215,0.722 4.82,1.101 4.525,1.07 9.114,0.858 13.649,0.359 2.775,-0.305 5.523,-1.16 8.196,-2.033 4.23,-1.38 7.781,-4.019 11.334,-6.608 C -0.471,0.725 -0.257,0.317 0,0" /></g><g
           transform="translate(64.6827,73.7928)"
           id="g64"><path
             id="path66"
             style="fill:#000000;fill-opacity:1;fill-rule:nonzero;stroke:none"
             d="m 0,0 c -2.731,1.645 -5.247,3.416 -7.977,4.747 -4.082,1.989 -8.451,2.893 -12.971,1.768 -3.592,-0.894 -6.247,-3.514 -5.891,-7.268 0.257,-2.714 2.055,-4.617 4.238,-6.113 3.681,-2.525 7.883,-3.986 11.901,-5.833 5.663,-2.602 11.003,-5.721 14.738,-10.941 1.533,-2.142 2.896,-4.414 3.142,-7.098 0.26,-2.836 0.665,-5.728 0.367,-8.527 -0.317,-2.983 -1.594,-5.8 -3.285,-8.352 -3.768,-5.687 -9.066,-9.119 -15.664,-10.644 -8.311,-1.921 -16.333,-0.884 -24.06,2.524 -3.503,1.546 -6.609,3.749 -9.306,6.519 -0.65,0.667 -0.615,1.239 -0.236,1.844 2.146,3.424 4.366,6.801 6.485,10.241 0.477,0.775 0.791,0.883 1.466,0.299 3.551,-3.079 7.464,-5.635 12.021,-6.847 3.772,-1.003 7.673,-1.346 11.449,0.255 4.245,1.799 5.308,7.656 2.252,11.163 -2.554,2.929 -5.898,4.598 -9.316,6.191 -3.045,1.42 -6.172,2.689 -9.109,4.304 -4.459,2.452 -8.328,5.655 -10.77,10.241 -1.224,2.297 -2.217,4.724 -2.226,7.413 -0.005,1.799 -0.133,3.612 0.046,5.393 0.159,1.578 0.489,3.189 1.056,4.665 1.31,3.408 3.223,6.429 6.056,8.854 2.48,2.123 5.214,3.679 8.285,4.777 3.484,1.245 7.086,1.689 10.717,1.67 3.629,-0.019 7.221,-0.477 10.732,-1.642 4.962,-1.645 9.408,-4.06 13.217,-7.661 C 7.861,11.465 8.01,11.12 7.643,10.601 5.195,7.144 2.736,3.696 0.271,0.252 0.142,0.07 -0.064,-0.057 0,0" /></g><g
           transform="translate(344.9306,121.5987)"
           id="g68"><path
             id="path70"
             style="fill:#000000;fill-opacity:1;fill-rule:nonzero;stroke:none"
             d="m 0,0 v -14.783 h -44.961 v 78.032 h 16.259 c 0,-1.096 -10e-4,-2.237 0,-3.378 0.003,-19.392 0.007,-38.785 0.008,-58.178 0,-1.692 -0.006,-1.694 1.655,-1.694 8.517,0 17.034,0.001 25.55,0.001 C -1.02,0 -0.551,0 0,0" /></g><g
           transform="translate(174.9755,15.7065)"
           id="g72"><path
             id="path74"
             style="fill:#000000;fill-opacity:1;fill-rule:nonzero;stroke:none"
             d="m 0,0 c -1.325,0 -2.595,-0.001 -3.866,0 -3.718,0.003 -7.438,0.028 -11.156,-0.007 -0.928,-0.009 -1.232,0.275 -1.231,1.234 0.025,25.352 0.023,50.705 0.011,76.057 0,0.742 0.088,1.232 1.002,1.228 5.036,-0.019 10.073,-0.009 15.24,-0.009 z" /></g><g
           transform="translate(131.7501,145.8404)"
           id="g76"><path
             id="path78"
             style="fill:transparent;fill-opacity:1;fill-rule:nonzero;stroke:none"
             d="m 0,0 c -0.327,-7.476 -3.045,-13.725 -8.594,-18.639 -2.504,-2.218 -5.436,-3.725 -8.683,-4.74 -3.084,-0.964 -6.205,-1.118 -9.294,-0.764 -3.942,0.452 -7.561,1.985 -10.789,4.393 -3.705,2.762 -6.279,6.383 -8.019,10.581 -1.668,4.024 -2.023,8.332 -1.449,12.579 0.687,5.082 2.779,9.711 6.35,13.452 2.956,3.098 6.46,5.415 10.727,6.546 2.862,0.759 5.735,1.142 8.609,0.744 5.171,-0.715 9.71,-2.906 13.443,-6.627 3.093,-3.082 5.411,-6.639 6.417,-10.934 C -0.772,4.414 -0.422,2.198 0,0" /></g><g
           transform="translate(450.5746,144.6491)"
           id="g80"><path
             id="path82"
             style="fill:transparent;fill-opacity:1;fill-rule:nonzero;stroke:none"
             d="m 0,0 v 24.572 c 0.721,0 1.428,0 2.135,0 3.275,-10e-4 6.551,0.04 9.826,-0.012 4.073,-0.065 7.894,-2.796 9.053,-6.601 C 22.435,13.292 22.031,8.679 19.178,4.575 17.127,1.624 14.287,-0.079 10.533,-0.013 7.062,0.048 3.59,0 0,0" /></g><g
           transform="translate(21.9845,156.3963)"
           id="g84"><path
             id="path86"
             style="fill:transparent;fill-opacity:1;fill-rule:nonzero;stroke:none"
             d="m 0,0 c 0,3.836 0.029,7.673 -0.02,11.509 -0.013,0.961 0.216,1.342 1.248,1.326 3.476,-0.053 6.955,-0.085 10.429,0 4.152,0.101 8.151,-3.083 9.499,-6.9 0.843,-2.384 1.175,-4.79 0.794,-7.174 -0.598,-3.738 -1.94,-7.207 -5.084,-9.696 -1.68,-1.33 -3.556,-1.932 -5.664,-1.926 -3.237,0.01 -6.473,0.054 -9.709,0.015 -1.083,-0.013 -1.554,0.229 -1.528,1.457 0.081,3.795 0.03,7.592 0.03,11.389 z" /></g><g
           transform="translate(175.5795,169.2235)"
           id="g88"><path
             id="path90"
             style="fill:transparent;fill-opacity:1;fill-rule:nonzero;stroke:none"
             d="m 0,0 c 0.703,0 1.372,0 2.04,0 3.117,-0.002 6.235,0 9.352,-0.007 4.308,-0.008 7.277,-2.162 9.203,-5.869 1.068,-2.056 1.585,-4.325 1.371,-6.607 -0.384,-4.093 -1.455,-7.976 -4.718,-10.843 -1.562,-1.372 -3.353,-2.289 -5.486,-2.308 -3.716,-0.033 -7.432,-0.033 -11.148,-0.039 -0.19,-0.001 -0.38,0.075 -0.614,0.124 z" /></g><g
           transform="translate(379.2036,131.1169)"
           id="g92"><path
             id="path94"
             style="fill:transparent;fill-opacity:1;fill-rule:nonzero;stroke:none"
             d="M 0,0 C 3.253,7.738 6.375,15.165 9.647,22.949 13,15.18 16.201,7.76 19.514,0.084 13.051,-0.277 6.716,-0.121 0,0" /></g></g></g></g></svg>