<?xml version="1.0" encoding="UTF-8" standalone="no"?>
<!-- Created with Inkscape (http://www.inkscape.org/) -->
<svg xmlns:dc="http://purl.org/dc/elements/1.1/" xmlns:cc="http://creativecommons.org/ns#" xmlns:rdf="http://www.w3.org/1999/02/22-rdf-syntax-ns#" xmlns:svg="http://www.w3.org/2000/svg" xmlns="http://www.w3.org/2000/svg" version="1.1" width="300" height="73" id="svg4252" viewBox="0 0 300 73">
  <defs id="defs4254">
    <clipPath id="clipPath152">
      <path d="M 421.92,64.881 L 563.299,64.881 L 563.299,35.641 L 421.92,35.641 L 421.92,64.881 z" id="path154"/>
    </clipPath>
  </defs>
  <metadata id="metadata4257">
    <rdf:RDF>
      <cc:Work rdf:about="">
        <dc:format>image/svg+xml</dc:format>
        <dc:type rdf:resource="http://purl.org/dc/dcmitype/StillImage"/>
        <dc:title/>
      </cc:Work>
    </rdf:RDF>
  </metadata>
  <g transform="translate(0,-979.36218)" id="layer1">
    <path d="M 274.81515,1029.8095 C 271.04573,1027.7424 270.96881,1024.8713 271.16981,1023.8166 C 271.36585,1022.7446 272.10782,1023.2136 272.57683,1023.2136 C 275.05338,1023.2136 277.65896,1022.4766 280.87252,1019.1986 C 284.49553,1015.5011 285.62958,1007.2823 280.07099,1001.9322 C 274.06573,996.15522 267.6808,997.1652 263.5739,1002.354 C 262.7277,1003.4161 260.67301,1004.2003 258.8888,1004.1358 C 256.25592,1004.034 257.91357,1006.1135 257.91357,1006.5453 C 257.91357,1006.9845 257.51404,1007.2848 257.2783,1007.2178 C 256.38496,1006.9597 256.74477,1008.2898 256.74477,1008.6918 C 256.74477,1009.0889 256.37999,1009.2948 256.18147,1009.2948 C 255.06231,1009.2948 255.36505,1010.2949 255.40476,1010.5654 C 255.43454,1010.8334 255.34024,1011.2949 254.96801,1011.5009 C 254.61812,1011.6969 254.20122,1012.5729 254.20122,1013.238 C 254.20122,1014.444 255.30798,1015.2827 257.1443,1016.6575 C 258.9831,1018.0273 259.21636,1019.3301 259.25358,1020.273 C 259.28584,1021.2061 259.37021,1022.7149 259.78959,1023.7174 C 260.29086,1024.9209 260.22386,1027.1295 257.6803,1027.2287 C 254.57593,1027.3553 249.04712,1029.8418 248.5806,1030.008 C 246.82369,1030.6334 244.5134,1030.8567 242.69693,1030.3976 C 241.7217,1029.7127 240.79113,1028.9608 239.91267,1028.1543 C 239.55285,1026.9036 240.18068,1025.5587 240.81843,1024.6529 C 241.85322,1025.6927 243.39175,1025.6232 244.26028,1025.6604 C 245.12881,1025.6927 249.38213,1025.0202 249.98513,1024.8192 C 250.58814,1024.6157 250.85614,1024.6852 251.22837,1024.8192 C 252.84384,1025.4098 255.07223,1025.586 255.97551,1022.4766 C 256.87629,1019.3648 254.73723,1020.2358 254.46675,1020.3698 C 254.20122,1020.5038 253.83396,1020.4691 253.96796,1020.2036 C 254.36004,1019.412 253.76696,1019.4988 253.43196,1019.4666 C 252.57087,1019.3797 251.42193,1020.3003 251.05467,1020.6378 C 250.68244,1020.9753 250.3251,1020.9406 250.18862,1020.8711 C 249.02975,1020.2979 245.59782,1021.1267 244.53325,1019.2631 C 244.63003,1018.7618 243.65728,1011.2006 243.15849,1009.8904 C 243.04931,1009.6174 242.95253,1009.1584 243.29249,1008.6571 C 244.16599,1007.3468 246.56561,1008.7588 247.87585,1008.7266 C 249.4392,1008.6844 249.69232,1008.0317 250.11665,1007.5032 C 250.53107,1006.9895 250.83629,1007.2774 251.05467,1007.1359 C 251.34004,1006.9498 251.07204,1006.5825 251.1713,1006.384 C 251.27304,1006.1805 251.38967,1006.2798 251.65519,1006.0465 C 251.92816,1005.8133 251.62045,1005.312 251.75942,1005.111 C 252.14157,1004.5278 253.19373,1004.9944 252.56094,1003.4707 C 252.21353,1002.6345 252.69495,1001.7287 253.16643,1001.1257 C 253.92578,1000.1505 256.84652,996.03363 251.6949,991.7555 C 246.76661,987.67838 241.78622,988.00594 238.57266,991.48998 C 235.36406,994.97154 236.96712,1000.0562 237.3046,1001.3937 C 237.63713,1002.7337 236.6743,1003.9497 235.5601,1004.4733 C 234.68165,1004.8877 232.67906,1006.2277 231.16534,1007.5454 C 231.40109,996.62175 238.02921,987.02326 248.191,982.93124 C 248.62526,983.47718 249.10916,983.98837 249.62531,984.4673 C 248.50367,985.29364 246.0296,987.50467 246.0296,987.50467 C 246.0296,987.50467 246.36957,987.5543 246.68224,987.63123 C 246.89813,987.68334 247.35969,987.82727 247.35969,987.82727 C 247.35969,987.82727 249.5335,985.9711 250.55588,985.23657 C 251.35493,985.83958 252.2185,986.34581 253.14162,986.75029 C 252.65028,987.58656 251.40704,989.91918 251.40704,989.91918 C 251.40704,989.91918 251.70234,990.08544 251.95546,990.25667 C 252.20609,990.43037 252.36987,990.57927 252.36987,990.57927 C 252.36987,990.57927 253.72229,988.03075 254.23348,987.17711 C 255.37002,987.56175 256.55866,987.77764 257.76219,987.83968 C 257.76219,988.16972 257.76219,992.1178 257.76219,992.49996 C 257.0897,992.48259 255.37746,992.4131 254.68264,992.34114 L 254.24589,992.29895 L 254.48908,992.66374 C 254.67767,992.93174 254.81664,993.19478 254.94071,993.44293 L 254.99283,993.54715 L 255.10698,993.55212 C 255.6132,993.59679 257.17408,993.65138 257.76219,993.66379 C 257.76219,994.04098 257.76219,1002.163 257.76219,1002.163 L 258.93843,1002.163 C 258.93843,1002.163 258.93843,1000.5301 258.93843,1000.215 C 260.66556,1000.1331 262.1098,1000.014 263.84438,999.86509 L 263.91386,999.86012 L 265.44248,998.50274 L 264.61117,998.57966 C 262.77485,998.81789 261.16683,998.92707 259.69529,999.00896 C 259.69529,999.00896 259.19651,999.03626 258.93843,999.05363 C 258.93843,998.66403 258.93843,994.01368 258.93843,993.66379 C 261.07005,993.61664 263.20912,993.31886 265.29855,992.76796 C 265.8693,994.17498 266.94131,997.57465 266.94131,997.57465 L 268.05055,997.22724 C 268.05055,997.22724 266.9835,993.8499 266.41523,992.44536 C 268.18703,991.89943 269.88687,991.17235 271.50978,990.28148 C 272.80761,991.88454 273.93421,993.63401 274.8623,995.49266 C 274.02603,995.88226 272.49494,996.42323 272.49494,996.42323 C 273.7208,996.55227 274.65385,996.84509 274.65385,996.84509 C 274.65385,996.84509 275.07819,996.65897 275.3586,996.53738 C 275.46531,996.77808 275.6812,997.27687 275.6812,997.27687 L 277.20237,997.95432 L 277.03114,997.5275 C 277.03114,997.5275 276.52243,996.32149 276.40084,996.03859 C 278.01878,995.24451 279.60695,994.32883 281.1306,993.30397 C 284.02653,997.72602 285.55266,1002.8628 285.55266,1008.1682 C 285.55266,1016.9875 281.33657,1024.8365 274.81515,1029.8095 z M 255.38491,981.14952 C 253.71981,981.88156 252.10931,982.7625 250.60055,983.7824 C 250.14147,983.3804 249.72954,982.94861 249.34987,982.50194 C 251.28793,981.82201 253.31781,981.37037 255.38491,981.14952 z M 253.75207,985.75521 C 252.9828,985.43013 252.2582,985.0182 251.57578,984.53678 C 253.1044,983.52184 254.74964,982.65828 256.47181,981.95601 C 255.49657,983.16947 254.58586,984.43752 253.75207,985.75521 z M 257.76219,982.19423 C 257.76219,983.08013 257.76219,986.29866 257.76219,986.6684 C 256.77703,986.62125 255.81173,986.44507 254.86627,986.15721 C 255.74224,984.79238 256.71003,983.46973 257.76219,982.19423 z M 258.93843,987.83968 C 260.15437,987.78756 261.35294,987.56423 262.51181,987.17711 C 263.37041,988.62135 264.14713,990.13259 264.82954,991.6885 C 262.90389,992.18232 260.92364,992.46025 258.93843,992.50492 C 258.93843,992.12525 258.93843,988.17716 258.93843,987.83968 z M 258.93843,982.14212 C 259.97819,983.40521 260.96086,984.74275 261.86662,986.15721 C 260.91123,986.44755 259.93104,986.62373 258.93843,986.67088 C 258.93843,986.30362 258.93843,983.0305 258.93843,982.14212 z M 265.17199,984.53678 C 264.48461,985.02068 263.75753,985.43261 262.99074,985.75521 C 262.16936,984.45489 261.2512,983.18188 260.25611,981.94608 C 261.9758,982.65083 263.62601,983.51688 265.17199,984.53678 z M 267.38798,982.51187 C 267.00335,982.96847 266.57901,983.3928 266.13978,983.78985 C 264.6335,982.76746 263.04037,981.88653 261.38024,981.15944 C 263.44734,981.38526 265.45488,981.83193 267.38798,982.51187 z M 270.74299,989.37821 C 269.21686,990.20208 267.61132,990.8696 265.96608,991.37335 C 265.27622,989.79511 264.48213,988.2392 263.60368,986.75277 C 264.50943,986.34829 265.38292,985.84206 266.18445,985.23905 C 267.84954,986.44755 269.38064,987.84216 270.74299,989.37821 z M 268.54189,982.94365 C 270.80999,983.85685 272.94161,985.0852 274.89456,986.58899 C 273.91932,987.39052 272.86964,988.13249 271.76785,988.79506 C 270.37821,987.19696 268.81485,985.74528 267.10509,984.47474 C 267.62621,984.00326 268.10266,983.49207 268.54189,982.94365 z M 280.47796,992.34858 C 279.02131,993.32134 277.48526,994.20972 275.90205,994.98891 C 274.97645,993.11289 273.83495,991.33613 272.51727,989.69337 C 273.68606,988.98613 274.79282,988.19205 275.82264,987.32848 C 277.57956,988.8025 279.14539,990.49241 280.47796,992.34858 z M 258.35279,979.81943 C 242.71678,979.81943 230.00896,992.5347 230.00896,1008.1682 C 230.00896,1023.7993 242.71678,1036.5195 258.35279,1036.5195 C 273.98384,1036.5195 286.70656,1023.7993 286.70656,1008.1682 C 286.70656,992.5347 273.98384,979.81943 258.35279,979.81943" id="path94" style="fill:#000;fill-opacity:1;fill-rule:nonzero;stroke:none"/>
    <path d="M 227.44059,987.3533 L 226.99392,987.7429 C 225.33379,989.2194 221.53459,993.10296 222.12023,997.36869 C 222.12271,997.37861 222.1773,997.66647 222.1773,997.66647 C 222.1773,997.67391 222.36093,998.51018 222.36093,998.51018 L 222.89446,998.0238 C 225.2246,995.89467 226.96166,992.28903 227.6813,988.12753 L 227.87982,986.95626 L 227.44059,987.3533" id="path98" style="fill:#000;fill-opacity:1;fill-rule:nonzero;stroke:none"/>
    <path d="M 219.71812,994.71843 L 219.53201,995.2321 C 219.26897,995.9443 218.79003,997.44065 218.53196,999.4333 C 218.17462,1002.2449 218.24906,1006.2202 220.69832,1009.1981 C 220.69584,1009.1931 220.97377,1009.5504 220.97377,1009.5504 L 221.24921,1009.9078 L 221.61151,1008.0987 C 222.01848,1004.9075 221.48992,998.21488 220.3112,995.2197 L 219.91168,994.20476 L 219.71812,994.71843" id="path102" style="fill:#000;fill-opacity:1;fill-rule:nonzero;stroke:none"/>
    <path d="M 216.90409,1006.2326 L 216.87431,1006.7562 C 216.6609,1009.6273 216.81227,1016.6947 222.53961,1020.4467 C 222.54209,1020.4467 223.2121,1020.8884 223.2121,1020.8884 L 223.1848,1020.0794 C 223.08554,1017.3994 219.95883,1009.3891 217.60636,1006.5205 L 216.93883,1005.7115 L 216.90409,1006.2326" id="path106" style="fill:#000;fill-opacity:1;fill-rule:nonzero;stroke:none"/>
    <path d="M 217.88677,1018.8884 L 217.99099,1019.3698 C 218.82478,1023.432 222.68353,1030.0105 228.62924,1031.9238 L 229.43821,1032.1893 L 229.14787,1031.3828 C 228.03616,1028.3454 222.30634,1021.2632 218.61882,1018.9306 L 217.78999,1018.4045 L 217.88677,1018.8884" id="path110" style="fill:#000;fill-opacity:1;fill-rule:nonzero;stroke:none"/>
    <path d="M 229.84518,993.47519 L 229.36873,993.75808 C 224.94419,996.46293 222.86717,999.73605 223.02598,1003.7784 C 223.02598,1003.7809 223.06321,1004.7016 223.06321,1004.7016 L 223.71336,1004.1631 C 226.10802,1002.1828 229.10569,997.11061 229.98911,994.23701 C 229.99159,994.23701 230.30922,993.18982 230.30922,993.18982 L 229.84518,993.47519" id="path114" style="fill:#000;fill-opacity:1;fill-rule:nonzero;stroke:none"/>
    <path d="M 227.23463,1002.3218 L 226.89963,1002.637 C 225.76806,1003.7214 222.09542,1007.6298 222.41553,1012.4613 C 222.4602,1013.1983 222.63391,1013.9924 222.92176,1014.8261 L 223.17984,1015.5954 L 223.65381,1014.9353 C 225.41072,1012.4662 227.73093,1005.9547 227.60934,1002.9248 L 227.5746,1002.0066 L 227.23463,1002.3218" id="path118" style="fill:#000;fill-opacity:1;fill-rule:nonzero;stroke:none"/>
    <path d="M 227.42322,1010.7068 L 227.17755,1011.0741 C 225.32634,1013.8236 224.38337,1016.6451 224.44292,1019.2407 C 224.49752,1021.1639 225.10301,1023.0052 226.26435,1024.7125 L 226.65395,1025.2857 L 226.97655,1024.6777 C 227.77559,1023.1764 228.41334,1018.3027 228.31656,1014.444 C 228.28927,1013.0841 228.14782,1011.9575 227.922,1011.1907 L 227.67882,1010.3371 L 227.42322,1010.7068" id="path122" style="fill:#000;fill-opacity:1;fill-rule:nonzero;stroke:none"/>
    <path d="M 229.57221,1019.6725 L 229.45806,1020.0547 C 228.89972,1021.8413 228.63916,1023.5858 228.68631,1025.2385 C 228.79053,1028.9856 230.44818,1031.9163 233.62204,1033.9486 L 234.15805,1034.2861 L 234.27716,1033.5665 C 234.27716,1033.5541 234.31934,1032.9883 234.31934,1032.9883 C 234.23249,1029.946 231.96191,1022.2706 230.18266,1019.9306 L 229.70125,1019.2829 L 229.57221,1019.6725" id="path126" style="fill:#000;fill-opacity:1;fill-rule:nonzero;stroke:none"/>
    <path d="M 223.88458,1031.4944 L 223.88458,1031.4944 z M 223.3312,1031.5564 L 223.56198,1031.9411 C 225.94424,1035.9388 229.99655,1041.0979 237.5602,1039.7752 L 238.20043,1039.6685 L 237.83813,1039.1325 C 236.42615,1037.0282 227.23462,1031.8443 223.98632,1031.3157 L 223.09546,1031.1693 L 223.3312,1031.5564" id="path130" style="fill:#000;fill-opacity:1;fill-rule:nonzero;stroke:none"/>
    <path d="M 234.53027,1041.7059 L 233.34163,1042.031 L 234.48312,1042.5 C 239.29726,1044.4703 245.32981,1045.051 248.82875,1043.8723 C 250.14147,1043.4256 250.94548,1042.7084 251.91823,1041.753 C 258.07486,1042.3908 263.84934,1047.5151 267.21427,1051.6965 L 267.38798,1051.9049 L 267.65102,1051.8181 C 268.02325,1051.6915 268.61137,1051.2399 268.85207,1050.9818 L 269.09774,1050.7212 L 268.87937,1050.4408 C 265.37299,1045.855 259.88389,1043.0161 259.63573,1042.8995 C 254.69752,1040.4825 245.97253,1038.609 234.53027,1041.7059" id="path134" style="fill:#000;fill-opacity:1;fill-rule:nonzero;stroke:none"/>
    <path d="M 234.78339,1028.9062 L 234.85287,1029.3181 C 235.57251,1033.8444 237.41379,1039.7976 245.0767,1039.14 L 245.56556,1039.0978 L 245.44645,1038.6213 C 244.92285,1036.5592 237.90513,1030.5688 235.45836,1028.8789 L 234.72383,1028.4992 L 234.78339,1028.9062" id="path138" style="fill:#000;fill-opacity:1;fill-rule:nonzero;stroke:none"/>
    <path d="M 288.94488,986.95626 L 289.13844,988.12753 C 289.85311,992.28903 291.59762,995.89467 293.92279,998.02381 L 294.45136,998.51018 C 294.45136,998.51018 294.6474,997.67391 294.6474,997.66647 C 294.6474,997.66647 294.69951,997.37861 294.70199,997.36869 C 295.28763,993.10297 291.48347,989.2194 289.8283,987.7429 L 289.38659,987.3533 L 288.94488,986.95626" id="path142" style="fill:#000;fill-opacity:1;fill-rule:nonzero;stroke:none"/>
    <path d="M 296.91302,994.20475 L 296.5135,995.21969 C 295.33726,998.21487 294.80125,1004.9075 295.2107,1008.0987 L 295.57052,1009.9078 L 295.85341,1009.5504 C 295.85341,1009.5504 296.12886,1009.1931 296.12638,1009.198 C 298.56323,1006.2202 298.65008,1002.2449 298.28778,999.4333 C 298.03466,997.44064 297.55325,995.94429 297.29517,995.2321 L 297.09913,994.71842 L 296.91302,994.20475" id="path146" style="fill:#000;fill-opacity:1;fill-rule:nonzero;stroke:none"/>
    <g transform="matrix(2.4815127,0,0,-2.4815127,-1097.8336,1140.346)" clip-path="url(#clipPath152)" id="g150" style="fill:#000;fill-opacity:1">
      <g transform="translate(563.252,54.255)" id="g156" style="fill:#000;fill-opacity:1">
        <path d="M 0,0 L -0.271,-0.326 C -1.215,-1.482 -2.479,-4.71 -2.516,-5.79 L -2.532,-6.116 L -2.257,-5.938 C 0.049,-4.426 0.11,-1.578 0.028,-0.421 L 0.014,-0.21 L 0,0" id="path158" style="fill:#000;fill-opacity:1;fill-rule:nonzero;stroke:none"/>
      </g>
    </g>
    <path d="M 299.03471,1018.4045 L 298.20588,1018.9306 C 294.52084,1021.2632 288.78606,1028.3454 287.67434,1031.3828 L 287.37408,1032.1893 L 288.19298,1031.9238 C 294.14117,1030.0105 298.00488,1023.432 298.83123,1019.3698 L 298.93545,1018.8884 L 299.03471,1018.4045" id="path162" style="fill:#000;fill-opacity:1;fill-rule:nonzero;stroke:none"/>
    <path d="M 286.73634,993.05085 L 287.03908,994.10549 C 287.86295,997.0039 290.76135,1002.1257 293.11631,1004.1556 L 293.75654,1004.7016 L 293.80865,1003.7809 C 294.04688,999.74597 292.03933,996.42819 287.66691,993.63897 L 287.20286,993.34615 L 286.73634,993.05085" id="path166" style="fill:#000;fill-opacity:1;fill-rule:nonzero;stroke:none"/>
    <path d="M 289.25011,1002.0066 L 289.20792,1002.9248 C 289.09377,1005.9547 291.41399,1012.4662 293.17338,1014.9353 L 293.64487,1015.5954 L 293.90543,1014.8261 C 294.1908,1013.9923 294.36203,1013.1982 294.40669,1012.4612 C 294.72433,1007.6297 291.04921,1003.7213 289.91764,1002.6369 L 289.59008,1002.3218 L 289.25011,1002.0066" id="path170" style="fill:#000;fill-opacity:1;fill-rule:nonzero;stroke:none"/>
    <path d="M 289.14589,1010.3371 L 288.90022,1011.1907 C 288.67688,1011.9575 288.53544,1013.0841 288.50566,1014.444 C 288.41384,1018.3028 289.04911,1023.1764 289.84816,1024.6778 L 290.16827,1025.2857 L 290.55787,1024.7125 C 291.7217,1023.0052 292.32471,1021.1639 292.37682,1019.2408 C 292.44382,1016.6451 291.4934,1013.8236 289.64467,1011.0741 L 289.39652,1010.7068 L 289.14589,1010.3371" id="path174" style="fill:#000;fill-opacity:1;fill-rule:nonzero;stroke:none"/>
    <path d="M 287.12345,1019.2829 L 286.62963,1019.9306 C 284.86279,1022.2706 282.59221,1029.946 282.50039,1032.9883 C 282.50039,1032.9883 282.54754,1033.5541 282.54754,1033.5665 L 282.66417,1034.2861 L 283.1977,1033.9486 C 286.37155,1031.9163 288.0292,1028.9856 288.14087,1025.2385 C 288.18057,1023.5858 287.92002,1021.8413 287.36168,1020.0547 L 287.24256,1019.6725 L 287.12345,1019.2829" id="path178" style="fill:#000;fill-opacity:1;fill-rule:nonzero;stroke:none"/>
    <path d="M 292.94012,1031.4944 L 292.94012,1031.4944 z M 293.71931,1031.1693 L 292.8359,1031.3157 C 289.59008,1031.8443 280.39359,1037.0282 278.98409,1039.1325 L 278.62427,1039.6685 L 279.25954,1039.7752 C 286.82815,1041.0979 290.87302,1035.9388 293.26272,1031.9411 L 293.4935,1031.5564 L 293.71931,1031.1693" id="path182" style="fill:#000;fill-opacity:1;fill-rule:nonzero;stroke:none"/>
    <path d="M 257.18897,1042.8995 C 256.9433,1043.0161 251.45171,1045.855 247.94285,1050.4408 L 247.72448,1050.7212 L 247.97263,1050.9818 C 248.20838,1051.2399 248.79898,1051.6915 249.1712,1051.8181 L 249.4268,1051.9049 L 249.61291,1051.6965 C 252.97288,1047.5151 258.7424,1042.3908 264.90151,1041.753 C 265.87923,1042.7084 266.67083,1043.4256 267.98851,1043.8723 C 271.49241,1045.051 277.52249,1044.4703 282.3391,1042.5 L 283.47812,1042.031 L 282.28947,1041.7059 C 270.8497,1038.609 262.12718,1040.4825 257.18897,1042.8995" id="path186" style="fill:#000;fill-opacity:1;fill-rule:nonzero;stroke:none"/>
    <path d="M 282.09839,1028.4993 L 281.36883,1028.879 C 278.91709,1030.5689 271.89689,1036.5593 271.37577,1038.6214 L 271.25666,1039.0978 L 271.748,1039.14 C 279.40595,1039.7976 281.24971,1033.8445 281.96935,1029.3182 L 282.03635,1028.9063 L 282.09839,1028.4993" id="path190" style="fill:#000;fill-opacity:1;fill-rule:nonzero;stroke:none"/>
    <path d="M 97.364658,1043.7779 L 89.322076,1043.7779 L 89.322076,1001.2498 L 97.364658,1001.2498 L 97.364658,1043.7779 z M 89.322076,1043.7779 z M 88.550325,982.60865 L 98.126235,982.60865 L 98.126235,991.33364 L 88.550325,991.33364 L 88.550325,982.60865 z" id="path192" style="fill:#000;fill-opacity:1;fill-rule:nonzero;stroke:none"/>
    <path d="M 28.557274,1001.2845 L 36.602338,1001.2845 L 36.602338,1043.8176 L 28.723535,1043.8176 L 28.723535,1037.5468 L 28.557274,1037.5468 C 25.331307,1042.8846 19.909202,1045.0832 13.98335,1045.0832 C 5.0846454,1045.0832 2.58484e-5,1038.3087 2.58484e-5,1029.7524 L 2.58484e-5,1001.2845 L 8.0550161,1001.2845 L 8.0550161,1026.4495 C 8.0550161,1033.8196 9.7498892,1039.2417 17.457468,1039.2417 C 20.755398,1039.2417 25.249418,1037.5468 26.944291,1033.1422 C 28.465458,1029.1593 28.557274,1024.1566 28.557274,1023.1466 L 28.557274,1001.2845" id="path196" style="fill:#000;fill-opacity:1;fill-rule:nonzero;stroke:none"/>
    <path d="M 52.675096,1007.5553 L 52.843839,1007.5553 C 55.551169,1002.2176 61.484466,1000.0189 65.720408,1000.0189 C 68.680853,1000.0189 81.817981,1000.7808 81.817981,1014.4192 L 81.817981,1043.8176 L 73.770435,1043.8176 L 73.770435,1017.0471 C 73.770435,1010.0145 70.807509,1006.2029 64.028017,1006.2029 C 64.028017,1006.2029 59.62085,1005.9498 56.233585,1009.3345 C 55.049904,1010.5207 52.843839,1012.3843 52.843839,1020.6875 L 52.843839,1043.8176 L 44.798775,1043.8176 L 44.798775,1001.2845 L 52.675096,1001.2845 L 52.675096,1007.5553" id="path200" style="fill:#000;fill-opacity:1;fill-rule:nonzero;stroke:none"/>
    <path d="M 131.07105,1014.9254 C 130.64175,1009.6199 128.12549,1005.9274 122.3932,1005.9274 C 114.74518,1005.9274 111.79218,1012.563 111.79218,1022.5089 C 111.79218,1032.4374 114.74518,1039.0854 122.3932,1039.0854 C 127.69619,1039.0854 130.97675,1035.646 131.39365,1029.5787 L 139.39901,1029.5787 C 138.71907,1039.0854 131.66165,1044.8921 122.31131,1044.8921 C 108.76473,1044.8921 103.37489,1035.3036 103.37489,1022.8414 C 103.37489,1010.4537 109.601,1000.1083 122.99373,1000.1083 C 131.91476,1000.1083 138.64215,1005.7512 139.05159,1014.9254 L 131.07105,1014.9254" id="path204" style="fill:#000;fill-opacity:1;fill-rule:nonzero;stroke:none"/>
    <path d="M 172.79768,1018.4665 C 172.9689,1011.3992 169.76527,1005.9274 162.01799,1005.9274 C 155.36505,1005.9274 151.42193,1011.548 151.42193,1018.4665 L 172.79768,1018.4665 z M 151.42193,1024.0176 C 150.83133,1031.425 153.86126,1039.0854 162.01799,1039.0854 C 168.2441,1039.0854 171.37081,1036.656 172.27904,1030.4944 L 180.71619,1030.4944 C 179.44565,1040.1028 172.02841,1044.8921 161.94354,1044.8921 C 148.38704,1044.8921 142.98975,1035.3036 142.98975,1022.8414 C 142.98975,1010.4537 149.23324,1000.1083 162.61355,1000.1083 C 175.23701,1000.3763 181.21249,1008.3593 181.21249,1020.0671 L 181.21249,1024.0176 L 151.42193,1024.0176" id="path208" style="fill:#000;fill-opacity:1;fill-rule:nonzero;stroke:none"/>
    <path d="M 190.26257,1043.629 L 190.26257,1006.9374 L 182.9967,1006.9374 L 182.9967,1001.3614 L 190.26257,1001.3614 L 190.26257,992.2865 C 190.53057,983.02302 197.50859,980.58617 203.48903,980.58617 C 205.42213,980.58617 207.2783,981.08495 209.21636,981.41996 L 209.21636,988.07041 C 207.86146,987.99597 206.52144,987.81233 205.16902,987.81233 C 200.63033,987.81233 198.01482,989.00346 198.26297,993.62404 L 198.26297,1001.3614 L 208.03516,1001.3614 L 208.03516,1006.9374 L 198.26297,1006.9374 L 198.26297,1043.629 L 190.26257,1043.629" id="path212" style="fill:#000;fill-opacity:1;fill-rule:nonzero;stroke:none"/>
  </g>
</svg>